{"nbformat":4,"nbformat_minor":0,"metadata":{"accelerator":"GPU","colab":{"name":"Downscale and Upscale.ipynb","provenance":[],"collapsed_sections":[],"toc_visible":true,"history_visible":true,"mount_file_id":"1klQi_HOj8kdBzOukiT6D8SCIyIzQfI4T","authorship_tag":"ABX9TyPNzo+K+1H6GcSL4UZ/n8Y/"},"kernelspec":{"display_name":"Python 3","name":"python3"}},"cells":[{"cell_type":"markdown","metadata":{"id":"fLthLjbAcP7y"},"source":["## Getting videos (don't tell em!)"]},{"cell_type":"code","metadata":{"colab":{"base_uri":"https://localhost:8080/"},"id":"wIGOJ37mZq18","executionInfo":{"status":"ok","timestamp":1618576105492,"user_tz":-420,"elapsed":210656,"user":{"displayName":"Hans T.M","photoUrl":"https://lh3.googleusercontent.com/a-/AOh14GgBig9lruccfDWW3bQPxAunWlw2r-brxePZpwlZWQ=s64","userId":"10052574054363759386"}},"outputId":"e252c4ce-6efa-431a-c74c-4e3998be3494"},"source":["!pip install youtube-dl\n","!add-apt-repository ppa:savoury1/ffmpeg4 -y\n","!add-apt-repository ppa:savoury1/graphics -y\n","!add-apt-repository ppa:savoury1/multimedia -y\n","!apt-get update\n","!apt-get upgrade && sudo apt-get dist-upgrade\n","!apt-get install ffmpeg\n","!rm -rf orig.mp4\n","!rm -rf in.mp4\n","!youtube-dl -f bestvideo[ext=mp4]+bestaudio[ext=m4a]/best[ext=mp4]/best -o orig.mp4 https://www.youtube.com/watch?v=LrzFldhHGhc\n","!ffmpeg -i orig.mp4 -filter:v \"crop=720:1080:600:0\" -c:a copy in.mp4"],"execution_count":null,"outputs":[{"output_type":"stream","text":["Requirement already satisfied: youtube-dl in /usr/local/lib/python3.7/dist-packages (2021.4.7)\n","Hit:1 https://cloud.r-project.org/bin/linux/ubuntu bionic-cran40/ InRelease\n","Get:2 http://security.ubuntu.com/ubuntu bionic-security InRelease [88.7 kB]\n","Ign:3 https://developer.download.nvidia.com/compute/cuda/repos/ubuntu1804/x86_64  InRelease\n","Hit:4 http://ppa.launchpad.net/c2d4u.team/c2d4u4.0+/ubuntu bionic InRelease\n","Hit:5 http://archive.ubuntu.com/ubuntu bionic InRelease\n","Ign:6 https://developer.download.nvidia.com/compute/machine-learning/repos/ubuntu1804/x86_64  InRelease\n","Hit:7 https://developer.download.nvidia.com/compute/cuda/repos/ubuntu1804/x86_64  Release\n","Hit:8 https://developer.download.nvidia.com/compute/machine-learning/repos/ubuntu1804/x86_64  Release\n","Get:9 http://archive.ubuntu.com/ubuntu bionic-updates InRelease [88.7 kB]\n","Hit:10 http://ppa.launchpad.net/cran/libgit2/ubuntu bionic InRelease\n","Hit:11 http://ppa.launchpad.net/deadsnakes/ppa/ubuntu bionic InRelease\n","Get:12 http://archive.ubuntu.com/ubuntu bionic-backports InRelease [74.6 kB]\n","Hit:13 http://ppa.launchpad.net/graphics-drivers/ppa/ubuntu bionic InRelease\n","Hit:14 http://ppa.launchpad.net/savoury1/ffmpeg4/ubuntu bionic InRelease\n","Hit:16 http://ppa.launchpad.net/savoury1/graphics/ubuntu bionic InRelease\n","Hit:18 http://ppa.launchpad.net/savoury1/multimedia/ubuntu bionic InRelease\n","Fetched 252 kB in 2s (108 kB/s)\n","Reading package lists... Done\n","Hit:1 https://cloud.r-project.org/bin/linux/ubuntu bionic-cran40/ InRelease\n","Hit:2 http://security.ubuntu.com/ubuntu bionic-security InRelease\n","Hit:3 http://ppa.launchpad.net/c2d4u.team/c2d4u4.0+/ubuntu bionic InRelease\n","Hit:4 http://archive.ubuntu.com/ubuntu bionic InRelease\n","Ign:5 https://developer.download.nvidia.com/compute/cuda/repos/ubuntu1804/x86_64  InRelease\n","Hit:6 http://archive.ubuntu.com/ubuntu bionic-updates InRelease\n","Hit:7 http://ppa.launchpad.net/cran/libgit2/ubuntu bionic InRelease\n","Ign:8 https://developer.download.nvidia.com/compute/machine-learning/repos/ubuntu1804/x86_64  InRelease\n","Hit:9 https://developer.download.nvidia.com/compute/cuda/repos/ubuntu1804/x86_64  Release\n","Hit:10 https://developer.download.nvidia.com/compute/machine-learning/repos/ubuntu1804/x86_64  Release\n","Hit:11 http://archive.ubuntu.com/ubuntu bionic-backports InRelease\n","Hit:12 http://ppa.launchpad.net/deadsnakes/ppa/ubuntu bionic InRelease\n","Hit:13 http://ppa.launchpad.net/graphics-drivers/ppa/ubuntu bionic InRelease\n","Hit:14 http://ppa.launchpad.net/savoury1/ffmpeg4/ubuntu bionic InRelease\n","Hit:15 http://ppa.launchpad.net/savoury1/graphics/ubuntu bionic InRelease\n","Hit:16 http://ppa.launchpad.net/savoury1/multimedia/ubuntu bionic InRelease\n","Reading package lists... Done\n","Hit:1 https://cloud.r-project.org/bin/linux/ubuntu bionic-cran40/ InRelease\n","Hit:2 http://security.ubuntu.com/ubuntu bionic-security InRelease\n","Ign:3 https://developer.download.nvidia.com/compute/cuda/repos/ubuntu1804/x86_64  InRelease\n","Hit:4 http://archive.ubuntu.com/ubuntu bionic InRelease\n","Ign:5 https://developer.download.nvidia.com/compute/machine-learning/repos/ubuntu1804/x86_64  InRelease\n","Hit:6 https://developer.download.nvidia.com/compute/cuda/repos/ubuntu1804/x86_64  Release\n","Hit:7 https://developer.download.nvidia.com/compute/machine-learning/repos/ubuntu1804/x86_64  Release\n","Hit:8 http://archive.ubuntu.com/ubuntu bionic-updates InRelease\n","Hit:9 http://ppa.launchpad.net/c2d4u.team/c2d4u4.0+/ubuntu bionic InRelease\n","Hit:10 http://archive.ubuntu.com/ubuntu bionic-backports InRelease\n","Hit:11 http://ppa.launchpad.net/cran/libgit2/ubuntu bionic InRelease\n","Hit:12 http://ppa.launchpad.net/deadsnakes/ppa/ubuntu bionic InRelease\n","Hit:13 http://ppa.launchpad.net/graphics-drivers/ppa/ubuntu bionic InRelease\n","Hit:15 http://ppa.launchpad.net/savoury1/ffmpeg4/ubuntu bionic InRelease\n","Hit:17 http://ppa.launchpad.net/savoury1/graphics/ubuntu bionic InRelease\n","Hit:18 http://ppa.launchpad.net/savoury1/multimedia/ubuntu bionic InRelease\n","Reading package lists... Done\n","Hit:1 https://cloud.r-project.org/bin/linux/ubuntu bionic-cran40/ InRelease\n","Hit:2 http://security.ubuntu.com/ubuntu bionic-security InRelease\n","Ign:3 https://developer.download.nvidia.com/compute/cuda/repos/ubuntu1804/x86_64  InRelease\n","Hit:4 http://ppa.launchpad.net/c2d4u.team/c2d4u4.0+/ubuntu bionic InRelease\n","Hit:5 http://archive.ubuntu.com/ubuntu bionic InRelease\n","Ign:6 https://developer.download.nvidia.com/compute/machine-learning/repos/ubuntu1804/x86_64  InRelease\n","Hit:7 https://developer.download.nvidia.com/compute/cuda/repos/ubuntu1804/x86_64  Release\n","Hit:8 https://developer.download.nvidia.com/compute/machine-learning/repos/ubuntu1804/x86_64  Release\n","Hit:9 http://archive.ubuntu.com/ubuntu bionic-updates InRelease\n","Hit:10 http://ppa.launchpad.net/cran/libgit2/ubuntu bionic InRelease\n","Hit:11 http://archive.ubuntu.com/ubuntu bionic-backports InRelease\n","Hit:12 http://ppa.launchpad.net/deadsnakes/ppa/ubuntu bionic InRelease\n","Hit:13 http://ppa.launchpad.net/graphics-drivers/ppa/ubuntu bionic InRelease\n","Hit:14 http://ppa.launchpad.net/savoury1/ffmpeg4/ubuntu bionic InRelease\n","Hit:16 http://ppa.launchpad.net/savoury1/graphics/ubuntu bionic InRelease\n","Hit:18 http://ppa.launchpad.net/savoury1/multimedia/ubuntu bionic InRelease\n","Reading package lists... Done\n","Reading package lists... Done\n","Building dependency tree       \n","Reading state information... Done\n","Calculating upgrade... Done\n","The following packages were automatically installed and are no longer required:\n","  libann0 libavcodec-dev libavformat-dev libavresample-dev libavutil-dev\n","  libcharls1 libdc1394-22-dev libexif-dev libexif12 libgdcm2-dev libgdcm2.8\n","  libgl2ps1.4 libgphoto2-6 libgphoto2-dev libgphoto2-port12\n","  libhdf5-openmpi-100 libilmbase-dev libilmbase12 libilmbase25 liblept5\n","  libnetcdf-c++4 libopencv-calib3d3.2 libopencv-contrib3.2 libopencv-core-dev\n","  libopencv-core3.2 libopencv-core4.2 libopencv-features2d3.2\n","  libopencv-flann-dev libopencv-flann3.2 libopencv-flann4.2\n","  libopencv-highgui3.2 libopencv-imgcodecs3.2 libopencv-imgproc-dev\n","  libopencv-imgproc3.2 libopencv-imgproc4.2 libopencv-ml-dev libopencv-ml3.2\n","  libopencv-ml4.2 libopencv-objdetect3.2 libopencv-photo-dev\n","  libopencv-photo3.2 libopencv-photo4.2 libopencv-shape3.2\n","  libopencv-stitching3.2 libopencv-superres3.2 libopencv-ts-dev\n","  libopencv-video3.2 libopencv-videoio3.2 libopencv-videostab3.2\n","  libopencv-viz-dev libopencv-viz3.2 libopencv-viz4.2 libopencv3.2-java\n","  libopencv3.2-jni libopenexr-dev libopenexr22 libopenexr25 libprotobuf10\n","  libprotoc10 libraw1394-dev libsocket++1 libsodium23 libswresample-dev\n","  libswscale-dev libtbb-dev libtbb2 libtesseract4 libtiff5-dev libvtk6.3\n","  linux-headers-4.15.0-140 linux-headers-4.15.0-140-generic r-cran-covr\n","  r-cran-crosstalk r-cran-dt r-cran-htmlwidgets r-cran-later r-cran-lazyeval\n","  r-cran-promises r-cran-rex\n","Use 'apt autoremove' to remove them.\n","The following packages have been kept back:\n","  cuda-drivers libcudnn8 libcudnn8-dev libnccl-dev libnccl2 libvtk6.3\n","0 upgraded, 0 newly installed, 0 to remove and 6 not upgraded.\n","Reading package lists... Done\n","Building dependency tree       \n","Reading state information... Done\n","Calculating upgrade... Done\n","The following packages were automatically installed and are no longer required:\n","  libann0 libavcodec-dev libavformat-dev libavresample-dev libavutil-dev\n","  libcharls1 libdc1394-22-dev libexif-dev libexif12 libgdcm2-dev libgdcm2.8\n","  libgl2ps1.4 libgphoto2-6 libgphoto2-dev libgphoto2-port12\n","  libhdf5-openmpi-100 libilmbase-dev libilmbase12 libilmbase25 liblept5\n","  libnetcdf-c++4 libopencv-calib3d3.2 libopencv-contrib3.2 libopencv-core-dev\n","  libopencv-core3.2 libopencv-core4.2 libopencv-features2d3.2\n","  libopencv-flann-dev libopencv-flann3.2 libopencv-flann4.2\n","  libopencv-highgui3.2 libopencv-imgcodecs3.2 libopencv-imgproc-dev\n","  libopencv-imgproc3.2 libopencv-imgproc4.2 libopencv-ml-dev libopencv-ml3.2\n","  libopencv-ml4.2 libopencv-objdetect3.2 libopencv-photo-dev\n","  libopencv-photo3.2 libopencv-photo4.2 libopencv-shape3.2\n","  libopencv-stitching3.2 libopencv-superres3.2 libopencv-ts-dev\n","  libopencv-video3.2 libopencv-videoio3.2 libopencv-videostab3.2\n","  libopencv-viz-dev libopencv-viz3.2 libopencv-viz4.2 libopencv3.2-java\n","  libopencv3.2-jni libopenexr-dev libopenexr22 libopenexr25 libprotobuf10\n","  libprotoc10 libraw1394-dev libsocket++1 libsodium23 libswresample-dev\n","  libswscale-dev libtbb-dev libtbb2 libtesseract4 libtiff5-dev libvtk6.3\n","  linux-headers-4.15.0-140 linux-headers-4.15.0-140-generic r-cran-covr\n","  r-cran-crosstalk r-cran-dt r-cran-htmlwidgets r-cran-later r-cran-lazyeval\n","  r-cran-promises r-cran-rex\n","Use 'sudo apt autoremove' to remove them.\n","The following packages have been kept back:\n","  cuda-drivers libcudnn8 libcudnn8-dev libnccl-dev libnccl2\n","0 upgraded, 0 newly installed, 0 to remove and 5 not upgraded.\n","Reading package lists... Done\n","Building dependency tree       \n","Reading state information... Done\n","ffmpeg is already the newest version (7:4.3.2-2ubuntu0~18.04.sav0).\n","The following packages were automatically installed and are no longer required:\n","  libann0 libavcodec-dev libavformat-dev libavresample-dev libavutil-dev\n","  libcharls1 libdc1394-22-dev libexif-dev libexif12 libgdcm2-dev libgdcm2.8\n","  libgl2ps1.4 libgphoto2-6 libgphoto2-dev libgphoto2-port12\n","  libhdf5-openmpi-100 libilmbase-dev libilmbase12 libilmbase25 liblept5\n","  libnetcdf-c++4 libopencv-calib3d3.2 libopencv-contrib3.2 libopencv-core-dev\n","  libopencv-core3.2 libopencv-core4.2 libopencv-features2d3.2\n","  libopencv-flann-dev libopencv-flann3.2 libopencv-flann4.2\n","  libopencv-highgui3.2 libopencv-imgcodecs3.2 libopencv-imgproc-dev\n","  libopencv-imgproc3.2 libopencv-imgproc4.2 libopencv-ml-dev libopencv-ml3.2\n","  libopencv-ml4.2 libopencv-objdetect3.2 libopencv-photo-dev\n","  libopencv-photo3.2 libopencv-photo4.2 libopencv-shape3.2\n","  libopencv-stitching3.2 libopencv-superres3.2 libopencv-ts-dev\n","  libopencv-video3.2 libopencv-videoio3.2 libopencv-videostab3.2\n","  libopencv-viz-dev libopencv-viz3.2 libopencv-viz4.2 libopencv3.2-java\n","  libopencv3.2-jni libopenexr-dev libopenexr22 libopenexr25 libprotobuf10\n","  libprotoc10 libraw1394-dev libsocket++1 libsodium23 libswresample-dev\n","  libswscale-dev libtbb-dev libtbb2 libtesseract4 libtiff5-dev libvtk6.3\n","  linux-headers-4.15.0-140 linux-headers-4.15.0-140-generic r-cran-covr\n","  r-cran-crosstalk r-cran-dt r-cran-htmlwidgets r-cran-later r-cran-lazyeval\n","  r-cran-promises r-cran-rex\n","Use 'apt autoremove' to remove them.\n","0 upgraded, 0 newly installed, 0 to remove and 6 not upgraded.\n","[youtube] LrzFldhHGhc: Downloading webpage\n","[download] Destination: orig.f399.mp4\n","\u001b[K[download] 100% of 13.21MiB in 00:00\n","[download] Destination: orig.mp4.f140\n","\u001b[K[download] 100% of 4.10MiB in 00:00\n","[ffmpeg] Merging formats into \"orig.mp4\"\n","Deleting original file orig.f399.mp4 (pass -k to keep)\n","Deleting original file orig.mp4.f140 (pass -k to keep)\n","ffmpeg version 4.3.2-2ubuntu0~18.04.sav0 Copyright (c) 2000-2021 the FFmpeg developers\n","  built with gcc 7 (Ubuntu 7.5.0-3ubuntu1~18.04)\n","  configuration: --prefix=/usr --extra-version='2ubuntu0~18.04.sav0' --toolchain=hardened --libdir=/usr/lib/x86_64-linux-gnu --incdir=/usr/include/x86_64-linux-gnu --arch=amd64 --enable-gpl --disable-stripping --enable-avresample --disable-filter=resample --enable-gnutls --enable-ladspa --enable-libaom --enable-libass --enable-libbluray --enable-libbs2b --enable-libcaca --enable-libcdio --enable-libcodec2 --enable-libdav1d --enable-libflite --enable-libfontconfig --enable-libfreetype --enable-libfribidi --enable-libgme --enable-libgsm --enable-libjack --enable-libmp3lame --enable-libmysofa --enable-libopenjpeg --enable-libopenmpt --enable-libopus --enable-libpulse --enable-librabbitmq --enable-librubberband --enable-libshine --enable-libsnappy --enable-libsoxr --enable-libspeex --enable-libsrt --enable-libssh --enable-libtheora --enable-libtwolame --enable-libvidstab --enable-libvorbis --enable-libvpx --enable-libwavpack --enable-libwebp --enable-libx265 --enable-libxml2 --enable-libxvid --enable-libzimg --enable-libzmq --enable-libzvbi --enable-lv2 --enable-omx --enable-openal --enable-opencl --enable-opengl --enable-sdl2 --enable-pocketsphinx --enable-librsvg --enable-crystalhd --enable-libmfx --enable-libdc1394 --enable-libdrm --enable-libiec61883 --enable-nvenc --enable-chromaprint --enable-frei0r --enable-libx264 --enable-shared\n","  libavutil      56. 51.100 / 56. 51.100\n","  libavcodec     58. 91.100 / 58. 91.100\n","  libavformat    58. 45.100 / 58. 45.100\n","  libavdevice    58. 10.100 / 58. 10.100\n","  libavfilter     7. 85.100 /  7. 85.100\n","  libavresample   4.  0.  0 /  4.  0.  0\n","  libswscale      5.  7.100 /  5.  7.100\n","  libswresample   3.  7.100 /  3.  7.100\n","  libpostproc    55.  7.100 / 55.  7.100\n","\u001b[1;36m[libdav1d @ 0x564b69d5d200] \u001b[0mlibdav1d 0.8.2\n","Input #0, mov,mp4,m4a,3gp,3g2,mj2, from 'orig.mp4':\n","  Metadata:\n","    major_brand     : isom\n","    minor_version   : 512\n","    compatible_brands: isomiso2mp41\n","    encoder         : Lavf58.45.100\n","  Duration: 00:04:25.50, start: 0.000000, bitrate: 549 kb/s\n","    Stream #0:0(und): Video: av1 (Main) (av01 / 0x31307661), yuv420p(tv, bt709), 1920x1080, 412 kb/s, 59.94 fps, 59.94 tbr, 60k tbn, 60k tbc (default)\n","    Metadata:\n","      handler_name    : ISO Media file produced by Google Inc.\n","    Stream #0:1(eng): Audio: aac (LC) (mp4a / 0x6134706D), 44100 Hz, stereo, fltp, 127 kb/s (default)\n","    Metadata:\n","      handler_name    : ISO Media file produced by Google Inc.\n","\u001b[1;36m[libdav1d @ 0x564b69d5e400] \u001b[0mlibdav1d 0.8.2\n","Stream mapping:\n","  Stream #0:0 -> #0:0 (av1 (libdav1d) -> h264 (libx264))\n","  Stream #0:1 -> #0:1 (copy)\n","Press [q] to stop, [?] for help\n","\u001b[1;36m[libx264 @ 0x564b69d5f180] \u001b[0musing SAR=1/1\n","\u001b[1;36m[libx264 @ 0x564b69d5f180] \u001b[0musing cpu capabilities: MMX2 SSE2Fast SSSE3 SSE4.2 AVX FMA3 BMI2 AVX2\n","\u001b[1;36m[libx264 @ 0x564b69d5f180] \u001b[0mprofile High, level 3.2, 4:2:0, 8-bit\n","\u001b[1;36m[libx264 @ 0x564b69d5f180] \u001b[0m264 - core 160 r3011 cde9a93 - H.264/MPEG-4 AVC codec - Copyleft 2003-2020 - http://www.videolan.org/x264.html - options: cabac=1 ref=3 deblock=1:0:0 analyse=0x3:0x113 me=hex subme=7 psy=1 psy_rd=1.00:0.00 mixed_ref=1 me_range=16 chroma_me=1 trellis=1 8x8dct=1 cqm=0 deadzone=21,11 fast_pskip=1 chroma_qp_offset=-2 threads=3 lookahead_threads=1 sliced_threads=0 nr=0 decimate=1 interlaced=0 bluray_compat=0 constrained_intra=0 bframes=3 b_pyramid=2 b_adapt=1 b_bias=0 direct=1 weightb=1 open_gop=0 weightp=2 keyint=250 keyint_min=25 scenecut=40 intra_refresh=0 rc_lookahead=40 rc=crf mbtree=1 crf=23.0 qcomp=0.60 qpmin=0 qpmax=69 qpstep=4 ip_ratio=1.40 aq=1:1.00\n","Output #0, mp4, to 'in.mp4':\n","  Metadata:\n","    major_brand     : isom\n","    minor_version   : 512\n","    compatible_brands: isomiso2mp41\n","    encoder         : Lavf58.45.100\n","    Stream #0:0(und): Video: h264 (libx264) (avc1 / 0x31637661), yuv420p, 720x1080 [SAR 1:1 DAR 2:3], q=-1--1, 59.94 fps, 60k tbn, 59.94 tbc (default)\n","    Metadata:\n","      handler_name    : ISO Media file produced by Google Inc.\n","      encoder         : Lavc58.91.100 libx264\n","    Side data:\n","      cpb: bitrate max/min/avg: 0/0/0 buffer size: 0 vbv_delay: N/A\n","    Stream #0:1(eng): Audio: aac (LC) (mp4a / 0x6134706D), 44100 Hz, stereo, fltp, 127 kb/s (default)\n","    Metadata:\n","      handler_name    : ISO Media file produced by Google Inc.\n","frame=15910 fps= 91 q=-1.0 Lsize=   12915kB time=00:04:25.47 bitrate= 398.5kbits/s speed=1.52x    \n","video:8341kB audio:4148kB subtitle:0kB other streams:0kB global headers:0kB muxing overhead: 3.405544%\n","\u001b[1;36m[libx264 @ 0x564b69d5f180] \u001b[0mframe I:74    Avg QP:13.99  size: 36155\n","\u001b[1;36m[libx264 @ 0x564b69d5f180] \u001b[0mframe P:4216  Avg QP:16.41  size:  1162\n","\u001b[1;36m[libx264 @ 0x564b69d5f180] \u001b[0mframe B:11620 Avg QP:17.72  size:    83\n","\u001b[1;36m[libx264 @ 0x564b69d5f180] \u001b[0mconsecutive B-frames:  1.5%  2.5%  3.1% 93.0%\n","\u001b[1;36m[libx264 @ 0x564b69d5f180] \u001b[0mmb I  I16..4: 61.9% 19.4% 18.6%\n","\u001b[1;36m[libx264 @ 0x564b69d5f180] \u001b[0mmb P  I16..4:  0.3%  0.5%  0.2%  P16..4:  2.5%  0.5%  0.4%  0.0%  0.0%    skip:95.6%\n","\u001b[1;36m[libx264 @ 0x564b69d5f180] \u001b[0mmb B  I16..4:  0.0%  0.0%  0.0%  B16..8:  0.9%  0.0%  0.0%  direct: 0.0%  skip:99.0%  L0:40.0% L1:58.5% BI: 1.5%\n","\u001b[1;36m[libx264 @ 0x564b69d5f180] \u001b[0m8x8 transform intra:31.2% inter:68.0%\n","\u001b[1;36m[libx264 @ 0x564b69d5f180] \u001b[0mcoded y,uvDC,uvAC intra: 28.1% 38.0% 26.0% inter: 0.4% 0.7% 0.1%\n","\u001b[1;36m[libx264 @ 0x564b69d5f180] \u001b[0mi16 v,h,dc,p: 81% 15%  3%  1%\n","\u001b[1;36m[libx264 @ 0x564b69d5f180] \u001b[0mi8 v,h,dc,ddl,ddr,vr,hd,vl,hu: 31% 18% 21%  3%  6%  5%  6%  4%  5%\n","\u001b[1;36m[libx264 @ 0x564b69d5f180] \u001b[0mi4 v,h,dc,ddl,ddr,vr,hd,vl,hu: 27% 32% 12%  5%  7%  4%  5%  3%  5%\n","\u001b[1;36m[libx264 @ 0x564b69d5f180] \u001b[0mi8c dc,h,v,p: 64% 21% 11%  4%\n","\u001b[1;36m[libx264 @ 0x564b69d5f180] \u001b[0mWeighted P-Frames: Y:2.3% UV:1.4%\n","\u001b[1;36m[libx264 @ 0x564b69d5f180] \u001b[0mref P L0: 68.8% 22.1%  6.8%  2.3%  0.1%\n","\u001b[1;36m[libx264 @ 0x564b69d5f180] \u001b[0mref B L0: 83.6% 14.4%  2.0%\n","\u001b[1;36m[libx264 @ 0x564b69d5f180] \u001b[0mref B L1: 96.0%  4.0%\n","\u001b[1;36m[libx264 @ 0x564b69d5f180] \u001b[0mkb/s:257.40\n"],"name":"stdout"}]},{"cell_type":"markdown","metadata":{"id":"U6b67z_6YyDR"},"source":["## Install dependencies"]},{"cell_type":"code","metadata":{"colab":{"base_uri":"https://localhost:8080/"},"id":"fdN9eUT8SKqO","executionInfo":{"status":"ok","timestamp":1618570101982,"user_tz":-420,"elapsed":531996,"user":{"displayName":"Hans T.M","photoUrl":"https://lh3.googleusercontent.com/a-/AOh14GgBig9lruccfDWW3bQPxAunWlw2r-brxePZpwlZWQ=s64","userId":"10052574054363759386"}},"outputId":"72ccde0a-409c-4308-c921-1a8c71dfe15d"},"source":["!pip install ffmpeg-python\n","import ffmpeg\n","import numpy as np\n","from ipywidgets import interact\n","from matplotlib import pyplot as plt\n","import ipywidgets as widgets\n","import math\n","import time"],"execution_count":null,"outputs":[{"output_type":"stream","text":["Collecting ffmpeg-python\n","  Downloading https://files.pythonhosted.org/packages/d7/0c/56be52741f75bad4dc6555991fabd2e07b432d333da82c11ad701123888a/ffmpeg_python-0.2.0-py3-none-any.whl\n","Requirement already satisfied: future in /usr/local/lib/python3.7/dist-packages (from ffmpeg-python) (0.16.0)\n","Installing collected packages: ffmpeg-python\n","Successfully installed ffmpeg-python-0.2.0\n"],"name":"stdout"}]},{"cell_type":"markdown","metadata":{"id":"gHRK3chLclfo"},"source":["## Do the stuff (the hard part)\n","\n","- Get each frame\n","- Get pixels needed to build the original source (256x384)\n","- Upscale using Nearest Neighbor to nearest round number multiplier (x5, 1280x1920)\n","- Upscale using Bilinear to the target resolution (1440x2160)"]},{"cell_type":"code","metadata":{"colab":{"base_uri":"https://localhost:8080/"},"id":"J4bkJUGLclNj","executionInfo":{"status":"ok","timestamp":1618572816526,"user_tz":-420,"elapsed":3246517,"user":{"displayName":"Hans T.M","photoUrl":"https://lh3.googleusercontent.com/a-/AOh14GgBig9lruccfDWW3bQPxAunWlw2r-brxePZpwlZWQ=s64","userId":"10052574054363759386"}},"outputId":"eaa9037b-f127-4aa2-d151-8cb9d0a38a96"},"source":["print(\"Preparing variables...\")\n","\n","probe = ffmpeg.probe('in.mp4')\n","video_info = next(s for s in probe['streams'] if s['codec_type'] == 'video')\n","\n","input = \"in.mp4\"\n","output = \"out.mp4\"\n","output_real = \"real.mp4\"\n","width_input = int(video_info['width'])\n","height_input = int(video_info['height'])\n","width_real = 256\n","height_real = 384\n","# width_output = 960\n","# height_output = 1440\n","width_output = 2160\n","height_output = 3240\n","start_time = time.time()\n","frame_count = int(video_info['nb_frames'])\n","frame_curr = 0\n","section_start_time = time.time()\n","\n","width_real_target = []\n","height_real_target = []\n","width_real_increment = width_input/width_real\n","height_real_increment = height_input/height_real\n","width_real_middle = width_real_increment/2\n","height_real_middle = height_real_increment/2\n","\n","for i in range(width_real):\n","  width_real_target.append(width_real_middle + width_real_increment * i)\n","\n","for i in range(height_real):\n","  height_real_target.append(height_real_middle + height_real_increment * i)\n","\n","width_real_target = list(map(lambda a: math.floor(a), width_real_target))\n","height_real_target = list(map(lambda a: math.floor(a), height_real_target))\n","\n","multiplier = math.floor(width_output/width_real)\n","\n","print(f\"Input resolution is {width_input}x{height_input}\")\n","print(f\"Real resolution is {width_real}x{height_real}\")\n","print(f\"Multiplier is {multiplier} ({width_real*multiplier}x{height_real*multiplier})\")\n","print(f\"Output resolution is {width_output}x{height_output}\")\n","\n","process1 = (\n","  ffmpeg\n","  .input(input)\n","  .output(\n","    'pipe:', \n","    format='rawvideo', \n","    pix_fmt='rgb24', \n","    # vframes=600\n","    )\n","  .run_async(pipe_stdout=True)\n",")\n","\n","process2 = (\n","  ffmpeg\n","  .input(\n","    'pipe:', \n","    format='rawvideo', \n","    pix_fmt='rgb24', \n","    s='{}x{}'.format(width_real, height_real), \n","    framerate=60000/1001,\n","  )\n","  .output(\n","    'pipe:', \n","    format='rawvideo', \n","    pix_fmt='rgb24', \n","    s='{}x{}'.format(width_real*multiplier, height_real*multiplier), \n","    sws_flags=\"neighbor\"\n","  )\n","  .run_async(pipe_stdout=True, pipe_stdin=True)\n",")\n","\n","process3 = (\n","  ffmpeg\n","  .input(\n","    'pipe:', \n","    format='rawvideo', \n","    pix_fmt='rgb24', \n","    s='{}x{}'.format(width_real*multiplier, height_real*multiplier), \n","    framerate=60000/1001\n","  )\n","  .output(\n","    output, \n","    pix_fmt='yuv420p', \n","    s='{}x{}'.format(width_output, height_output), \n","    sws_flags=\"bilinear\", \n","    vcodec=\"h264_nvenc\", \n","    crf=18, \n","    preset='default', \n","    tune=\"fastdecode\",\n","    # vcodec=\"libx264\", \n","    # crf=18, \n","    # preset='fast', \n","  )\n","  .overwrite_output()\n","  .run_async(pipe_stdin=True)\n",")\n","\n","process4 = (\n","  ffmpeg\n","  .input(\n","    'pipe:', \n","    format='rawvideo', \n","    s='{}x{}'.format(width_real, height_real), \n","    pix_fmt='rgb24', \n","    framerate=60000/1001,\n","  )\n","  .output(\n","    output_real, \n","    pix_fmt='yuv420p', \n","    s='{}x{}'.format(width_real, height_real), \n","    vcodec=\"h264_nvenc\", \n","    crf=24, \n","    preset='default', \n","    tune=\"fastdecode\",\n","    # vcodec=\"libx264\", \n","    # crf=14, \n","    # preset='ultrafast', \n","  )\n","  .overwrite_output()\n","  .run_async(pipe_stdin=True)\n",")\n","\n","print(\"Encoding...\")\n","\n","while True:\n","  in_bytes = process1.stdout.read(width_input * height_input * 3)\n","  if not in_bytes:\n","    break\n","  in_frame = (\n","    np\n","    .frombuffer(in_bytes, np.uint8)\n","    .reshape([height_input, width_input, 3])\n","  )\n","\n","  real_frame = np.zeros((height_real, width_real, 3), dtype=np.uint8)\n","  # print(real_frame)\n","\n","  x_real = -1\n","  y_real = -1\n","  for y in height_real_target:\n","    y_real += 1\n","    x_real = -1\n","    for x in width_real_target:\n","      x_real += 1\n","      real_frame[y_real][x_real] = in_frame[y][x]\n","\n","  # print(real_frame)\n","\n","  # out_frame = (\n","      \n","  # )\n","\n","  # See examples/tensorflow_stream.py:\n","  # out_frame = deep_dream.process_frame(in_frame)\n","\n","  process2.stdin.write(\n","    real_frame\n","    .astype(np.uint8)\n","    .tobytes()\n","  )\n","  \n","  process4.stdin.write(\n","    real_frame\n","    .astype(np.uint8)\n","    .tobytes()\n","  )\n","\n","  process3.stdin.write(\n","    process2\n","    .stdout\n","    .read(width_real*multiplier * height_real*multiplier * 3)\n","  )\n","\n","  frame_curr += 1\n","  if math.floor(frame_curr/100)*100 == frame_curr:\n","    section_time = time.time() - section_start_time\n","    run_time = time.time() - start_time\n","    frame_remaning = frame_count - frame_curr\n","    est = (section_time/100)*frame_remaning\n","    print(f\"Frame {frame_curr} of {frame_count}. ({round((frame_curr/frame_count)*100, 2)}%, sect.: {math.floor(section_time/60)}m{math.floor(section_time%60)}s, all: {math.floor(run_time/60)}m{math.floor(run_time%60)}s, est.: {math.floor(est/60)}m{math.floor(est%60)}s)\")\n","    section_start_time = time.time()\n","\n","\n","print(f\"Frame {frame_curr} of {frame_count}.\")\n","\n","process2.stdin.close()\n","process3.stdin.close()\n","process4.stdin.close()\n","process1.wait()\n","process2.wait()\n","process3.wait()\n","process4.wait()\n","\n","run_time = time.time() - start_time\n","\n","print(f\"All done!\")\n","print(f\"Done in {math.floor(run_time/60)}m{math.floor(run_time%60)}s.\")"],"execution_count":null,"outputs":[{"output_type":"stream","text":["Preparing variables...\n","Input resolution is 720x1080\n","Real resolution is 256x384\n","Multiplier is 8 (2048x3072)\n","Output resolution is 2160x3240\n","Encoding...\n","Frame 100 of 15910. (0.63%, sect.: 0m17s, all: 0m17s, est.: 47m6s)\n","Frame 200 of 15910. (1.26%, sect.: 0m17s, all: 0m35s, est.: 44m54s)\n","Frame 300 of 15910. (1.89%, sect.: 0m17s, all: 0m52s, est.: 44m51s)\n","Frame 400 of 15910. (2.51%, sect.: 0m17s, all: 1m9s, est.: 44m22s)\n","Frame 500 of 15910. (3.14%, sect.: 0m17s, all: 1m26s, est.: 44m20s)\n","Frame 600 of 15910. (3.77%, sect.: 0m17s, all: 1m43s, est.: 44m0s)\n","Frame 700 of 15910. (4.4%, sect.: 0m17s, all: 2m1s, est.: 43m55s)\n","Frame 800 of 15910. (5.03%, sect.: 0m17s, all: 2m18s, est.: 43m28s)\n","Frame 900 of 15910. (5.66%, sect.: 0m17s, all: 2m35s, est.: 43m14s)\n","Frame 1000 of 15910. (6.29%, sect.: 0m17s, all: 2m53s, est.: 42m45s)\n","Frame 1100 of 15910. (6.91%, sect.: 0m17s, all: 3m10s, est.: 42m41s)\n","Frame 1200 of 15910. (7.54%, sect.: 0m17s, all: 3m27s, est.: 42m41s)\n","Frame 1300 of 15910. (8.17%, sect.: 0m17s, all: 3m45s, est.: 42m12s)\n","Frame 1400 of 15910. (8.8%, sect.: 0m17s, all: 4m2s, est.: 41m39s)\n","Frame 1500 of 15910. (9.43%, sect.: 0m17s, all: 4m19s, est.: 41m18s)\n","Frame 1600 of 15910. (10.06%, sect.: 0m17s, all: 4m36s, est.: 41m9s)\n","Frame 1700 of 15910. (10.69%, sect.: 0m17s, all: 4m54s, est.: 40m50s)\n","Frame 1800 of 15910. (11.31%, sect.: 0m17s, all: 5m11s, est.: 40m13s)\n","Frame 1900 of 15910. (11.94%, sect.: 0m17s, all: 5m28s, est.: 40m4s)\n","Frame 2000 of 15910. (12.57%, sect.: 0m17s, all: 5m45s, est.: 39m27s)\n","Frame 2100 of 15910. (13.2%, sect.: 0m17s, all: 6m2s, est.: 39m26s)\n","Frame 2200 of 15910. (13.83%, sect.: 0m17s, all: 6m19s, est.: 39m16s)\n","Frame 2300 of 15910. (14.46%, sect.: 0m17s, all: 6m36s, est.: 38m33s)\n","Frame 2400 of 15910. (15.08%, sect.: 0m16s, all: 6m53s, est.: 38m2s)\n","Frame 2500 of 15910. (15.71%, sect.: 0m17s, all: 7m10s, est.: 38m15s)\n","Frame 2600 of 15910. (16.34%, sect.: 0m17s, all: 7m27s, est.: 38m8s)\n","Frame 2700 of 15910. (16.97%, sect.: 0m16s, all: 7m44s, est.: 37m18s)\n","Frame 2800 of 15910. (17.6%, sect.: 0m17s, all: 8m1s, est.: 37m11s)\n","Frame 2900 of 15910. (18.23%, sect.: 0m16s, all: 8m18s, est.: 36m48s)\n","Frame 3000 of 15910. (18.86%, sect.: 0m17s, all: 8m35s, est.: 36m35s)\n","Frame 3100 of 15910. (19.48%, sect.: 0m17s, all: 8m52s, est.: 36m45s)\n","Frame 3200 of 15910. (20.11%, sect.: 0m17s, all: 9m10s, est.: 36m2s)\n","Frame 3300 of 15910. (20.74%, sect.: 0m16s, all: 9m26s, est.: 35m33s)\n","Frame 3400 of 15910. (21.37%, sect.: 0m16s, all: 9m43s, est.: 35m21s)\n","Frame 3500 of 15910. (22.0%, sect.: 0m17s, all: 10m0s, est.: 35m12s)\n","Frame 3600 of 15910. (22.63%, sect.: 0m17s, all: 10m18s, est.: 35m4s)\n","Frame 3700 of 15910. (23.26%, sect.: 0m16s, all: 10m34s, est.: 34m28s)\n","Frame 3800 of 15910. (23.88%, sect.: 0m16s, all: 10m51s, est.: 34m3s)\n","Frame 3900 of 15910. (24.51%, sect.: 0m16s, all: 11m8s, est.: 33m48s)\n","Frame 4000 of 15910. (25.14%, sect.: 0m17s, all: 11m25s, est.: 33m56s)\n","Frame 4100 of 15910. (25.77%, sect.: 0m16s, all: 11m42s, est.: 33m18s)\n","Frame 4200 of 15910. (26.4%, sect.: 0m16s, all: 11m59s, est.: 33m5s)\n","Frame 4300 of 15910. (27.03%, sect.: 0m16s, all: 12m16s, est.: 32m43s)\n","Frame 4400 of 15910. (27.66%, sect.: 0m16s, all: 12m33s, est.: 32m32s)\n","Frame 4500 of 15910. (28.28%, sect.: 0m17s, all: 12m50s, est.: 32m20s)\n","Frame 4600 of 15910. (28.91%, sect.: 0m17s, all: 13m7s, est.: 32m9s)\n","Frame 4700 of 15910. (29.54%, sect.: 0m17s, all: 13m24s, est.: 31m55s)\n","Frame 4800 of 15910. (30.17%, sect.: 0m17s, all: 13m41s, est.: 31m31s)\n","Frame 4900 of 15910. (30.8%, sect.: 0m17s, all: 13m58s, est.: 31m19s)\n","Frame 5000 of 15910. (31.43%, sect.: 0m17s, all: 14m15s, est.: 31m11s)\n","Frame 5100 of 15910. (32.06%, sect.: 0m16s, all: 14m32s, est.: 30m34s)\n","Frame 5200 of 15910. (32.68%, sect.: 0m17s, all: 14m50s, est.: 30m28s)\n","Frame 5300 of 15910. (33.31%, sect.: 0m16s, all: 15m6s, est.: 29m55s)\n","Frame 5400 of 15910. (33.94%, sect.: 0m17s, all: 15m23s, est.: 29m49s)\n","Frame 5500 of 15910. (34.57%, sect.: 0m17s, all: 15m40s, est.: 29m30s)\n","Frame 5600 of 15910. (35.2%, sect.: 0m16s, all: 15m57s, est.: 29m6s)\n","Frame 5700 of 15910. (35.83%, sect.: 0m16s, all: 16m14s, est.: 28m47s)\n","Frame 5800 of 15910. (36.46%, sect.: 0m17s, all: 16m31s, est.: 28m47s)\n","Frame 5900 of 15910. (37.08%, sect.: 0m16s, all: 16m48s, est.: 28m20s)\n","Frame 6000 of 15910. (37.71%, sect.: 0m17s, all: 17m6s, est.: 28m12s)\n","Frame 6100 of 15910. (38.34%, sect.: 0m17s, all: 17m23s, est.: 27m48s)\n","Frame 6200 of 15910. (38.97%, sect.: 0m17s, all: 17m40s, est.: 27m32s)\n","Frame 6300 of 15910. (39.6%, sect.: 0m17s, all: 17m57s, est.: 27m14s)\n","Frame 6400 of 15910. (40.23%, sect.: 0m16s, all: 18m14s, est.: 26m56s)\n","Frame 6500 of 15910. (40.85%, sect.: 0m17s, all: 18m31s, est.: 26m45s)\n","Frame 6600 of 15910. (41.48%, sect.: 0m17s, all: 18m48s, est.: 26m25s)\n","Frame 6700 of 15910. (42.11%, sect.: 0m17s, all: 19m5s, est.: 26m28s)\n","Frame 6800 of 15910. (42.74%, sect.: 0m17s, all: 19m22s, est.: 25m59s)\n","Frame 6900 of 15910. (43.37%, sect.: 0m17s, all: 19m39s, est.: 25m49s)\n","Frame 7000 of 15910. (44.0%, sect.: 0m16s, all: 19m56s, est.: 25m13s)\n","Frame 7100 of 15910. (44.63%, sect.: 0m17s, all: 20m13s, est.: 25m7s)\n","Frame 7200 of 15910. (45.25%, sect.: 0m17s, all: 20m30s, est.: 24m46s)\n","Frame 7300 of 15910. (45.88%, sect.: 0m17s, all: 20m47s, est.: 24m28s)\n","Frame 7400 of 15910. (46.51%, sect.: 0m17s, all: 21m5s, est.: 24m19s)\n","Frame 7500 of 15910. (47.14%, sect.: 0m17s, all: 21m22s, est.: 23m54s)\n","Frame 7600 of 15910. (47.77%, sect.: 0m17s, all: 21m39s, est.: 23m48s)\n","Frame 7700 of 15910. (48.4%, sect.: 0m17s, all: 21m56s, est.: 23m18s)\n","Frame 7800 of 15910. (49.03%, sect.: 0m17s, all: 22m13s, est.: 23m5s)\n","Frame 7900 of 15910. (49.65%, sect.: 0m17s, all: 22m30s, est.: 22m50s)\n","Frame 8000 of 15910. (50.28%, sect.: 0m16s, all: 22m47s, est.: 22m21s)\n","Frame 8100 of 15910. (50.91%, sect.: 0m17s, all: 23m4s, est.: 22m9s)\n","Frame 8200 of 15910. (51.54%, sect.: 0m17s, all: 23m21s, est.: 21m57s)\n","Frame 8300 of 15910. (52.17%, sect.: 0m17s, all: 23m38s, est.: 21m53s)\n","Frame 8400 of 15910. (52.8%, sect.: 0m17s, all: 23m56s, est.: 21m42s)\n","Frame 8500 of 15910. (53.43%, sect.: 0m17s, all: 24m13s, est.: 21m11s)\n","Frame 8600 of 15910. (54.05%, sect.: 0m17s, all: 24m30s, est.: 20m58s)\n","Frame 8700 of 15910. (54.68%, sect.: 0m17s, all: 24m47s, est.: 20m30s)\n","Frame 8800 of 15910. (55.31%, sect.: 0m17s, all: 25m4s, est.: 20m29s)\n","Frame 8900 of 15910. (55.94%, sect.: 0m16s, all: 25m21s, est.: 19m47s)\n","Frame 9000 of 15910. (56.57%, sect.: 0m16s, all: 25m38s, est.: 19m32s)\n","Frame 9100 of 15910. (57.2%, sect.: 0m16s, all: 25m55s, est.: 19m17s)\n","Frame 9200 of 15910. (57.83%, sect.: 0m17s, all: 26m12s, est.: 19m3s)\n","Frame 9300 of 15910. (58.45%, sect.: 0m17s, all: 26m30s, est.: 18m54s)\n","Frame 9400 of 15910. (59.08%, sect.: 0m17s, all: 26m47s, est.: 18m32s)\n","Frame 9500 of 15910. (59.71%, sect.: 0m16s, all: 27m4s, est.: 18m6s)\n","Frame 9600 of 15910. (60.34%, sect.: 0m16s, all: 27m21s, est.: 17m47s)\n","Frame 9700 of 15910. (60.97%, sect.: 0m16s, all: 27m37s, est.: 17m33s)\n","Frame 9800 of 15910. (61.6%, sect.: 0m16s, all: 27m54s, est.: 17m17s)\n","Frame 9900 of 15910. (62.23%, sect.: 0m16s, all: 28m11s, est.: 16m54s)\n","Frame 10000 of 15910. (62.85%, sect.: 0m16s, all: 28m28s, est.: 16m39s)\n","Frame 10100 of 15910. (63.48%, sect.: 0m16s, all: 28m45s, est.: 16m20s)\n","Frame 10200 of 15910. (64.11%, sect.: 0m17s, all: 29m2s, est.: 16m12s)\n","Frame 10300 of 15910. (64.74%, sect.: 0m16s, all: 29m19s, est.: 15m49s)\n","Frame 10400 of 15910. (65.37%, sect.: 0m17s, all: 29m36s, est.: 15m39s)\n","Frame 10500 of 15910. (66.0%, sect.: 0m16s, all: 29m53s, est.: 15m11s)\n","Frame 10600 of 15910. (66.62%, sect.: 0m16s, all: 30m10s, est.: 15m1s)\n","Frame 10700 of 15910. (67.25%, sect.: 0m17s, all: 30m27s, est.: 14m48s)\n","Frame 10800 of 15910. (67.88%, sect.: 0m16s, all: 30m44s, est.: 14m26s)\n","Frame 10900 of 15910. (68.51%, sect.: 0m16s, all: 31m1s, est.: 14m6s)\n","Frame 11000 of 15910. (69.14%, sect.: 0m16s, all: 31m18s, est.: 13m49s)\n","Frame 11100 of 15910. (69.77%, sect.: 0m16s, all: 31m35s, est.: 13m34s)\n","Frame 11200 of 15910. (70.4%, sect.: 0m16s, all: 31m52s, est.: 13m18s)\n","Frame 11300 of 15910. (71.02%, sect.: 0m16s, all: 32m9s, est.: 12m59s)\n","Frame 11400 of 15910. (71.65%, sect.: 0m16s, all: 32m25s, est.: 12m42s)\n","Frame 11500 of 15910. (72.28%, sect.: 0m16s, all: 32m42s, est.: 12m21s)\n","Frame 11600 of 15910. (72.91%, sect.: 0m16s, all: 32m59s, est.: 12m11s)\n","Frame 11700 of 15910. (73.54%, sect.: 0m17s, all: 33m16s, est.: 11m59s)\n","Frame 11800 of 15910. (74.17%, sect.: 0m17s, all: 33m33s, est.: 11m41s)\n","Frame 11900 of 15910. (74.8%, sect.: 0m16s, all: 33m50s, est.: 11m21s)\n","Frame 12000 of 15910. (75.42%, sect.: 0m17s, all: 34m7s, est.: 11m5s)\n","Frame 12100 of 15910. (76.05%, sect.: 0m17s, all: 34m24s, est.: 10m47s)\n","Frame 12200 of 15910. (76.68%, sect.: 0m17s, all: 34m42s, est.: 10m36s)\n","Frame 12300 of 15910. (77.31%, sect.: 0m17s, all: 34m59s, est.: 10m15s)\n","Frame 12400 of 15910. (77.94%, sect.: 0m17s, all: 35m16s, est.: 9m59s)\n","Frame 12500 of 15910. (78.57%, sect.: 0m17s, all: 35m33s, est.: 9m42s)\n","Frame 12600 of 15910. (79.2%, sect.: 0m16s, all: 35m50s, est.: 9m22s)\n","Frame 12700 of 15910. (79.82%, sect.: 0m16s, all: 36m7s, est.: 9m2s)\n","Frame 12800 of 15910. (80.45%, sect.: 0m16s, all: 36m24s, est.: 8m48s)\n","Frame 12900 of 15910. (81.08%, sect.: 0m16s, all: 36m41s, est.: 8m31s)\n","Frame 13000 of 15910. (81.71%, sect.: 0m17s, all: 36m58s, est.: 8m16s)\n","Frame 13100 of 15910. (82.34%, sect.: 0m17s, all: 37m15s, est.: 7m59s)\n","Frame 13200 of 15910. (82.97%, sect.: 0m17s, all: 37m32s, est.: 7m41s)\n","Frame 13300 of 15910. (83.6%, sect.: 0m16s, all: 37m49s, est.: 7m22s)\n","Frame 13400 of 15910. (84.22%, sect.: 0m16s, all: 38m6s, est.: 7m4s)\n","Frame 13500 of 15910. (84.85%, sect.: 0m16s, all: 38m23s, est.: 6m49s)\n","Frame 13600 of 15910. (85.48%, sect.: 0m17s, all: 38m40s, est.: 6m33s)\n","Frame 13700 of 15910. (86.11%, sect.: 0m16s, all: 38m57s, est.: 6m13s)\n","Frame 13800 of 15910. (86.74%, sect.: 0m16s, all: 39m14s, est.: 5m57s)\n","Frame 13900 of 15910. (87.37%, sect.: 0m16s, all: 39m30s, est.: 5m40s)\n","Frame 14000 of 15910. (87.99%, sect.: 0m17s, all: 39m48s, est.: 5m26s)\n","Frame 14100 of 15910. (88.62%, sect.: 0m16s, all: 40m5s, est.: 5m7s)\n","Frame 14200 of 15910. (89.25%, sect.: 0m16s, all: 40m22s, est.: 4m49s)\n","Frame 14300 of 15910. (89.88%, sect.: 0m16s, all: 40m38s, est.: 4m32s)\n","Frame 14400 of 15910. (90.51%, sect.: 0m16s, all: 40m55s, est.: 4m15s)\n","Frame 14500 of 15910. (91.14%, sect.: 0m17s, all: 41m12s, est.: 3m59s)\n","Frame 14600 of 15910. (91.77%, sect.: 0m16s, all: 41m29s, est.: 3m42s)\n","Frame 14700 of 15910. (92.39%, sect.: 0m16s, all: 41m46s, est.: 3m24s)\n","Frame 14800 of 15910. (93.02%, sect.: 0m16s, all: 42m3s, est.: 3m7s)\n","Frame 14900 of 15910. (93.65%, sect.: 0m17s, all: 42m20s, est.: 2m51s)\n","Frame 15000 of 15910. (94.28%, sect.: 0m17s, all: 42m37s, est.: 2m35s)\n","Frame 15100 of 15910. (94.91%, sect.: 0m17s, all: 42m54s, est.: 2m18s)\n","Frame 15200 of 15910. (95.54%, sect.: 0m16s, all: 43m11s, est.: 2m0s)\n","Frame 15300 of 15910. (96.17%, sect.: 0m16s, all: 43m28s, est.: 1m43s)\n","Frame 15400 of 15910. (96.79%, sect.: 0m17s, all: 43m45s, est.: 1m27s)\n","Frame 15500 of 15910. (97.42%, sect.: 0m17s, all: 44m2s, est.: 1m10s)\n","Frame 15600 of 15910. (98.05%, sect.: 0m17s, all: 44m19s, est.: 0m52s)\n","Frame 15700 of 15910. (98.68%, sect.: 0m16s, all: 44m36s, est.: 0m35s)\n","Frame 15800 of 15910. (99.31%, sect.: 0m17s, all: 44m54s, est.: 0m18s)\n","Frame 15900 of 15910. (99.94%, sect.: 0m17s, all: 45m12s, est.: 0m1s)\n","Frame 15910 of 15910.\n","All done!\n","Done in 45m14s.\n"],"name":"stdout"}]},{"cell_type":"code","metadata":{"id":"XKEaHAng0C9T"},"source":["# plt.imshow(real_frame[:,:,:])"],"execution_count":null,"outputs":[]},{"cell_type":"markdown","metadata":{"id":"x5SEN0UAvuUk"},"source":["## Add audio"]},{"cell_type":"code","metadata":{"colab":{"base_uri":"https://localhost:8080/"},"id":"oDUuLf48b03y","executionInfo":{"status":"ok","timestamp":1618572817101,"user_tz":-420,"elapsed":3247058,"user":{"displayName":"Hans T.M","photoUrl":"https://lh3.googleusercontent.com/a-/AOh14GgBig9lruccfDWW3bQPxAunWlw2r-brxePZpwlZWQ=s64","userId":"10052574054363759386"}},"outputId":"8daec4c4-26e4-40e3-c2c4-0104a5adc520"},"source":["!ffmpeg -i out.mp4 -i in.mp4 -c copy -map 0:v:0 -map 1:a:0 -shortest out_audio.mkv\n","!ffmpeg -i real.mp4 -i in.mp4 -c copy -map 0:v:0 -map 1:a:0 -shortest real_audio.mkv"],"execution_count":null,"outputs":[{"output_type":"stream","text":["ffmpeg version 4.3.2-2ubuntu0~18.04.sav0 Copyright (c) 2000-2021 the FFmpeg developers\n","  built with gcc 7 (Ubuntu 7.5.0-3ubuntu1~18.04)\n","  configuration: --prefix=/usr --extra-version='2ubuntu0~18.04.sav0' --toolchain=hardened --libdir=/usr/lib/x86_64-linux-gnu --incdir=/usr/include/x86_64-linux-gnu --arch=amd64 --enable-gpl --disable-stripping --enable-avresample --disable-filter=resample --enable-gnutls --enable-ladspa --enable-libaom --enable-libass --enable-libbluray --enable-libbs2b --enable-libcaca --enable-libcdio --enable-libcodec2 --enable-libdav1d --enable-libflite --enable-libfontconfig --enable-libfreetype --enable-libfribidi --enable-libgme --enable-libgsm --enable-libjack --enable-libmp3lame --enable-libmysofa --enable-libopenjpeg --enable-libopenmpt --enable-libopus --enable-libpulse --enable-librabbitmq --enable-librubberband --enable-libshine --enable-libsnappy --enable-libsoxr --enable-libspeex --enable-libsrt --enable-libssh --enable-libtheora --enable-libtwolame --enable-libvidstab --enable-libvorbis --enable-libvpx --enable-libwavpack --enable-libwebp --enable-libx265 --enable-libxml2 --enable-libxvid --enable-libzimg --enable-libzmq --enable-libzvbi --enable-lv2 --enable-omx --enable-openal --enable-opencl --enable-opengl --enable-sdl2 --enable-pocketsphinx --enable-librsvg --enable-crystalhd --enable-libmfx --enable-libdc1394 --enable-libdrm --enable-libiec61883 --enable-nvenc --enable-chromaprint --enable-frei0r --enable-libx264 --enable-shared\n","  libavutil      56. 51.100 / 56. 51.100\n","  libavcodec     58. 91.100 / 58. 91.100\n","  libavformat    58. 45.100 / 58. 45.100\n","  libavdevice    58. 10.100 / 58. 10.100\n","  libavfilter     7. 85.100 /  7. 85.100\n","  libavresample   4.  0.  0 /  4.  0.  0\n","  libswscale      5.  7.100 /  5.  7.100\n","  libswresample   3.  7.100 /  3.  7.100\n","  libpostproc    55.  7.100 / 55.  7.100\n","Input #0, mov,mp4,m4a,3gp,3g2,mj2, from 'out.mp4':\n","  Metadata:\n","    major_brand     : isom\n","    minor_version   : 512\n","    compatible_brands: isomiso2avc1mp41\n","    encoder         : Lavf58.45.100\n","  Duration: 00:04:25.43, start: 0.000000, bitrate: 421 kb/s\n","    Stream #0:0(und): Video: h264 (Main) (avc1 / 0x31637661), yuv420p, 2160x3240 [SAR 1:1 DAR 2:3], 419 kb/s, 59.94 fps, 59.94 tbr, 60k tbn, 119.88 tbc (default)\n","    Metadata:\n","      handler_name    : VideoHandler\n","Input #1, mov,mp4,m4a,3gp,3g2,mj2, from 'in.mp4':\n","  Metadata:\n","    major_brand     : isom\n","    minor_version   : 512\n","    compatible_brands: isomiso2avc1mp41\n","    encoder         : Lavf58.45.100\n","  Duration: 00:04:25.50, start: 0.000000, bitrate: 398 kb/s\n","    Stream #1:0(und): Video: h264 (High) (avc1 / 0x31637661), yuv420p, 720x1080 [SAR 1:1 DAR 2:3], 257 kb/s, 59.94 fps, 59.94 tbr, 60k tbn, 119.88 tbc (default)\n","    Metadata:\n","      handler_name    : ISO Media file produced by Google Inc.\n","    Stream #1:1(eng): Audio: aac (LC) (mp4a / 0x6134706D), 44100 Hz, stereo, fltp, 127 kb/s (default)\n","    Metadata:\n","      handler_name    : ISO Media file produced by Google Inc.\n","Output #0, matroska, to 'out_audio.mkv':\n","  Metadata:\n","    major_brand     : isom\n","    minor_version   : 512\n","    compatible_brands: isomiso2avc1mp41\n","    encoder         : Lavf58.45.100\n","    Stream #0:0(und): Video: h264 (Main) (avc1 / 0x31637661), yuv420p, 2160x3240 [SAR 1:1 DAR 2:3], q=2-31, 419 kb/s, 59.94 fps, 59.94 tbr, 1k tbn, 60k tbc (default)\n","    Metadata:\n","      handler_name    : VideoHandler\n","    Stream #0:1(eng): Audio: aac (LC) ([255][0][0][0] / 0x00FF), 44100 Hz, stereo, fltp, 127 kb/s (default)\n","    Metadata:\n","      handler_name    : ISO Media file produced by Google Inc.\n","Stream mapping:\n","  Stream #0:0 -> #0:0 (copy)\n","  Stream #1:1 -> #0:1 (copy)\n","Press [q] to stop, [?] for help\n","frame=15910 fps=0.0 q=-1.0 Lsize=   17931kB time=00:04:25.42 bitrate= 553.4kbits/s speed=2.01e+03x    \n","video:13593kB audio:4148kB subtitle:0kB other streams:0kB global headers:0kB muxing overhead: 1.072552%\n","ffmpeg version 4.3.2-2ubuntu0~18.04.sav0 Copyright (c) 2000-2021 the FFmpeg developers\n","  built with gcc 7 (Ubuntu 7.5.0-3ubuntu1~18.04)\n","  configuration: --prefix=/usr --extra-version='2ubuntu0~18.04.sav0' --toolchain=hardened --libdir=/usr/lib/x86_64-linux-gnu --incdir=/usr/include/x86_64-linux-gnu --arch=amd64 --enable-gpl --disable-stripping --enable-avresample --disable-filter=resample --enable-gnutls --enable-ladspa --enable-libaom --enable-libass --enable-libbluray --enable-libbs2b --enable-libcaca --enable-libcdio --enable-libcodec2 --enable-libdav1d --enable-libflite --enable-libfontconfig --enable-libfreetype --enable-libfribidi --enable-libgme --enable-libgsm --enable-libjack --enable-libmp3lame --enable-libmysofa --enable-libopenjpeg --enable-libopenmpt --enable-libopus --enable-libpulse --enable-librabbitmq --enable-librubberband --enable-libshine --enable-libsnappy --enable-libsoxr --enable-libspeex --enable-libsrt --enable-libssh --enable-libtheora --enable-libtwolame --enable-libvidstab --enable-libvorbis --enable-libvpx --enable-libwavpack --enable-libwebp --enable-libx265 --enable-libxml2 --enable-libxvid --enable-libzimg --enable-libzmq --enable-libzvbi --enable-lv2 --enable-omx --enable-openal --enable-opencl --enable-opengl --enable-sdl2 --enable-pocketsphinx --enable-librsvg --enable-crystalhd --enable-libmfx --enable-libdc1394 --enable-libdrm --enable-libiec61883 --enable-nvenc --enable-chromaprint --enable-frei0r --enable-libx264 --enable-shared\n","  libavutil      56. 51.100 / 56. 51.100\n","  libavcodec     58. 91.100 / 58. 91.100\n","  libavformat    58. 45.100 / 58. 45.100\n","  libavdevice    58. 10.100 / 58. 10.100\n","  libavfilter     7. 85.100 /  7. 85.100\n","  libavresample   4.  0.  0 /  4.  0.  0\n","  libswscale      5.  7.100 /  5.  7.100\n","  libswresample   3.  7.100 /  3.  7.100\n","  libpostproc    55.  7.100 / 55.  7.100\n","Input #0, mov,mp4,m4a,3gp,3g2,mj2, from 'real.mp4':\n","  Metadata:\n","    major_brand     : isom\n","    minor_version   : 512\n","    compatible_brands: isomiso2avc1mp41\n","    encoder         : Lavf58.45.100\n","  Duration: 00:04:25.43, start: 0.000000, bitrate: 632 kb/s\n","    Stream #0:0(und): Video: h264 (Main) (avc1 / 0x31637661), yuv420p, 256x384 [SAR 1:1 DAR 2:3], 630 kb/s, 59.94 fps, 59.94 tbr, 60k tbn, 119.88 tbc (default)\n","    Metadata:\n","      handler_name    : VideoHandler\n","Input #1, mov,mp4,m4a,3gp,3g2,mj2, from 'in.mp4':\n","  Metadata:\n","    major_brand     : isom\n","    minor_version   : 512\n","    compatible_brands: isomiso2avc1mp41\n","    encoder         : Lavf58.45.100\n","  Duration: 00:04:25.50, start: 0.000000, bitrate: 398 kb/s\n","    Stream #1:0(und): Video: h264 (High) (avc1 / 0x31637661), yuv420p, 720x1080 [SAR 1:1 DAR 2:3], 257 kb/s, 59.94 fps, 59.94 tbr, 60k tbn, 119.88 tbc (default)\n","    Metadata:\n","      handler_name    : ISO Media file produced by Google Inc.\n","    Stream #1:1(eng): Audio: aac (LC) (mp4a / 0x6134706D), 44100 Hz, stereo, fltp, 127 kb/s (default)\n","    Metadata:\n","      handler_name    : ISO Media file produced by Google Inc.\n","Output #0, matroska, to 'real_audio.mkv':\n","  Metadata:\n","    major_brand     : isom\n","    minor_version   : 512\n","    compatible_brands: isomiso2avc1mp41\n","    encoder         : Lavf58.45.100\n","    Stream #0:0(und): Video: h264 (Main) (avc1 / 0x31637661), yuv420p, 256x384 [SAR 1:1 DAR 2:3], q=2-31, 630 kb/s, 59.94 fps, 59.94 tbr, 1k tbn, 60k tbc (default)\n","    Metadata:\n","      handler_name    : VideoHandler\n","    Stream #0:1(eng): Audio: aac (LC) ([255][0][0][0] / 0x00FF), 44100 Hz, stereo, fltp, 127 kb/s (default)\n","    Metadata:\n","      handler_name    : ISO Media file produced by Google Inc.\n","Stream mapping:\n","  Stream #0:0 -> #0:0 (copy)\n","  Stream #1:1 -> #0:1 (copy)\n","Press [q] to stop, [?] for help\n","frame=15910 fps=0.0 q=-1.0 Lsize=   24772kB time=00:04:25.42 bitrate= 764.6kbits/s speed=1.53e+03x    \n","video:20436kB audio:4148kB subtitle:0kB other streams:0kB global headers:0kB muxing overhead: 0.766020%\n"],"name":"stdout"}]},{"cell_type":"markdown","metadata":{"id":"p5TUJTSqVvF7"},"source":["## Upscale naively using nearest neighbor"]},{"cell_type":"code","metadata":{"id":"-HhoNSYHVyIi","colab":{"base_uri":"https://localhost:8080/"},"executionInfo":{"status":"ok","timestamp":1618578964578,"user_tz":-420,"elapsed":1323691,"user":{"displayName":"Hans T.M","photoUrl":"https://lh3.googleusercontent.com/a-/AOh14GgBig9lruccfDWW3bQPxAunWlw2r-brxePZpwlZWQ=s64","userId":"10052574054363759386"}},"outputId":"de41637e-c3ee-4cb6-c07a-375f20ef56bb"},"source":["!ffmpeg -i orig.mp4 -c:a copy -vf \"crop=720:1080:600:0, scale=2160x3240\" out_naive.mp4\n","\n","\n"],"execution_count":15,"outputs":[{"output_type":"stream","text":["ffmpeg version 4.3.2-2ubuntu0~18.04.sav0 Copyright (c) 2000-2021 the FFmpeg developers\n","  built with gcc 7 (Ubuntu 7.5.0-3ubuntu1~18.04)\n","  configuration: --prefix=/usr --extra-version='2ubuntu0~18.04.sav0' --toolchain=hardened --libdir=/usr/lib/x86_64-linux-gnu --incdir=/usr/include/x86_64-linux-gnu --arch=amd64 --enable-gpl --disable-stripping --enable-avresample --disable-filter=resample --enable-gnutls --enable-ladspa --enable-libaom --enable-libass --enable-libbluray --enable-libbs2b --enable-libcaca --enable-libcdio --enable-libcodec2 --enable-libdav1d --enable-libflite --enable-libfontconfig --enable-libfreetype --enable-libfribidi --enable-libgme --enable-libgsm --enable-libjack --enable-libmp3lame --enable-libmysofa --enable-libopenjpeg --enable-libopenmpt --enable-libopus --enable-libpulse --enable-librabbitmq --enable-librubberband --enable-libshine --enable-libsnappy --enable-libsoxr --enable-libspeex --enable-libsrt --enable-libssh --enable-libtheora --enable-libtwolame --enable-libvidstab --enable-libvorbis --enable-libvpx --enable-libwavpack --enable-libwebp --enable-libx265 --enable-libxml2 --enable-libxvid --enable-libzimg --enable-libzmq --enable-libzvbi --enable-lv2 --enable-omx --enable-openal --enable-opencl --enable-opengl --enable-sdl2 --enable-pocketsphinx --enable-librsvg --enable-crystalhd --enable-libmfx --enable-libdc1394 --enable-libdrm --enable-libiec61883 --enable-nvenc --enable-chromaprint --enable-frei0r --enable-libx264 --enable-shared\n","  libavutil      56. 51.100 / 56. 51.100\n","  libavcodec     58. 91.100 / 58. 91.100\n","  libavformat    58. 45.100 / 58. 45.100\n","  libavdevice    58. 10.100 / 58. 10.100\n","  libavfilter     7. 85.100 /  7. 85.100\n","  libavresample   4.  0.  0 /  4.  0.  0\n","  libswscale      5.  7.100 /  5.  7.100\n","  libswresample   3.  7.100 /  3.  7.100\n","  libpostproc    55.  7.100 / 55.  7.100\n","\u001b[1;36m[libdav1d @ 0x56484b8e1200] \u001b[0mlibdav1d 0.8.2\n","Input #0, mov,mp4,m4a,3gp,3g2,mj2, from 'orig.mp4':\n","  Metadata:\n","    major_brand     : isom\n","    minor_version   : 512\n","    compatible_brands: isomiso2mp41\n","    encoder         : Lavf58.45.100\n","  Duration: 00:04:25.50, start: 0.000000, bitrate: 549 kb/s\n","    Stream #0:0(und): Video: av1 (Main) (av01 / 0x31307661), yuv420p(tv, bt709), 1920x1080, 412 kb/s, 59.94 fps, 59.94 tbr, 60k tbn, 60k tbc (default)\n","    Metadata:\n","      handler_name    : ISO Media file produced by Google Inc.\n","    Stream #0:1(eng): Audio: aac (LC) (mp4a / 0x6134706D), 44100 Hz, stereo, fltp, 127 kb/s (default)\n","    Metadata:\n","      handler_name    : ISO Media file produced by Google Inc.\n","\u001b[1;36m[libdav1d @ 0x56484b8e2400] \u001b[0mlibdav1d 0.8.2\n","Stream mapping:\n","  Stream #0:0 -> #0:0 (av1 (libdav1d) -> h264 (libx264))\n","  Stream #0:1 -> #0:1 (copy)\n","Press [q] to stop, [?] for help\n","\u001b[1;34m[swscaler @ 0x56484bf9c000] \u001b[0m\u001b[0;33mWarning: data is not aligned! This can lead to a speed loss\n","\u001b[0m\u001b[1;36m[libx264 @ 0x56484b8e3180] \u001b[0musing SAR=1/1\n","\u001b[1;36m[libx264 @ 0x56484b8e3180] \u001b[0musing cpu capabilities: MMX2 SSE2Fast SSSE3 SSE4.2 AVX FMA3 BMI2 AVX2\n","\u001b[1;36m[libx264 @ 0x56484b8e3180] \u001b[0mprofile High, level 5.2, 4:2:0, 8-bit\n","\u001b[1;36m[libx264 @ 0x56484b8e3180] \u001b[0m264 - core 160 r3011 cde9a93 - H.264/MPEG-4 AVC codec - Copyleft 2003-2020 - http://www.videolan.org/x264.html - options: cabac=1 ref=3 deblock=1:0:0 analyse=0x3:0x113 me=hex subme=7 psy=1 psy_rd=1.00:0.00 mixed_ref=1 me_range=16 chroma_me=1 trellis=1 8x8dct=1 cqm=0 deadzone=21,11 fast_pskip=1 chroma_qp_offset=-2 threads=3 lookahead_threads=1 sliced_threads=0 nr=0 decimate=1 interlaced=0 bluray_compat=0 constrained_intra=0 bframes=3 b_pyramid=2 b_adapt=1 b_bias=0 direct=1 weightb=1 open_gop=0 weightp=2 keyint=250 keyint_min=25 scenecut=40 intra_refresh=0 rc_lookahead=40 rc=crf mbtree=1 crf=23.0 qcomp=0.60 qpmin=0 qpmax=69 qpstep=4 ip_ratio=1.40 aq=1:1.00\n","Output #0, mp4, to 'out_naive.mp4':\n","  Metadata:\n","    major_brand     : isom\n","    minor_version   : 512\n","    compatible_brands: isomiso2mp41\n","    encoder         : Lavf58.45.100\n","    Stream #0:0(und): Video: h264 (libx264) (avc1 / 0x31637661), yuv420p, 2160x3240 [SAR 1:1 DAR 2:3], q=-1--1, 59.94 fps, 60k tbn, 59.94 tbc (default)\n","    Metadata:\n","      handler_name    : ISO Media file produced by Google Inc.\n","      encoder         : Lavc58.91.100 libx264\n","    Side data:\n","      cpb: bitrate max/min/avg: 0/0/0 buffer size: 0 vbv_delay: N/A\n","    Stream #0:1(eng): Audio: aac (LC) (mp4a / 0x6134706D), 44100 Hz, stereo, fltp, 127 kb/s (default)\n","    Metadata:\n","      handler_name    : ISO Media file produced by Google Inc.\n","frame=15910 fps= 12 q=-1.0 Lsize=   44175kB time=00:04:25.47 bitrate=1363.2kbits/s speed=0.201x    \n","video:39601kB audio:4148kB subtitle:0kB other streams:0kB global headers:0kB muxing overhead: 0.973896%\n","\u001b[1;36m[libx264 @ 0x56484b8e3180] \u001b[0mframe I:74    Avg QP:13.26  size:120738\n","\u001b[1;36m[libx264 @ 0x56484b8e3180] \u001b[0mframe P:4087  Avg QP:15.92  size:  6447\n","\u001b[1;36m[libx264 @ 0x56484b8e3180] \u001b[0mframe B:11749 Avg QP:17.86  size:   448\n","\u001b[1;36m[libx264 @ 0x56484b8e3180] \u001b[0mconsecutive B-frames:  1.1%  0.9%  1.1% 96.8%\n","\u001b[1;36m[libx264 @ 0x56484b8e3180] \u001b[0mmb I  I16..4: 61.1% 34.7%  4.2%\n","\u001b[1;36m[libx264 @ 0x56484b8e3180] \u001b[0mmb P  I16..4:  0.6%  1.2%  0.1%  P16..4:  2.7%  0.4%  0.3%  0.0%  0.0%    skip:94.8%\n","\u001b[1;36m[libx264 @ 0x56484b8e3180] \u001b[0mmb B  I16..4:  0.0%  0.0%  0.0%  B16..8:  0.8%  0.0%  0.0%  direct: 0.0%  skip:99.1%  L0:42.1% L1:57.2% BI: 0.7%\n","\u001b[1;36m[libx264 @ 0x56484b8e3180] \u001b[0m8x8 transform intra:50.5% inter:87.2%\n","\u001b[1;36m[libx264 @ 0x56484b8e3180] \u001b[0mcoded y,uvDC,uvAC intra: 21.4% 36.1% 15.7% inter: 0.3% 0.7% 0.0%\n","\u001b[1;36m[libx264 @ 0x56484b8e3180] \u001b[0mi16 v,h,dc,p: 72% 22%  2%  4%\n","\u001b[1;36m[libx264 @ 0x56484b8e3180] \u001b[0mi8 v,h,dc,ddl,ddr,vr,hd,vl,hu: 42% 22% 18%  3%  4%  3%  3%  2%  3%\n","\u001b[1;36m[libx264 @ 0x56484b8e3180] \u001b[0mi4 v,h,dc,ddl,ddr,vr,hd,vl,hu: 36% 34%  8%  2%  6%  4%  5%  3%  3%\n","\u001b[1;36m[libx264 @ 0x56484b8e3180] \u001b[0mi8c dc,h,v,p: 60% 22% 12%  7%\n","\u001b[1;36m[libx264 @ 0x56484b8e3180] \u001b[0mWeighted P-Frames: Y:2.6% UV:1.6%\n","\u001b[1;36m[libx264 @ 0x56484b8e3180] \u001b[0mref P L0: 74.3% 16.7%  6.7%  2.2%  0.1%\n","\u001b[1;36m[libx264 @ 0x56484b8e3180] \u001b[0mref B L0: 84.8% 14.2%  1.0%\n","\u001b[1;36m[libx264 @ 0x56484b8e3180] \u001b[0mref B L1: 98.2%  1.8%\n","\u001b[1;36m[libx264 @ 0x56484b8e3180] \u001b[0mkb/s:1222.17\n"],"name":"stdout"}]},{"cell_type":"markdown","metadata":{"id":"6e3poMymQWvf"},"source":["## Generate real source only"]},{"cell_type":"code","metadata":{"id":"m_4BOR3JAG2e"},"source":["# print(\"Preparing variables...\")\n","\n","# probe = ffmpeg.probe('in.mp4')\n","# video_info = next(s for s in probe['streams'] if s['codec_type'] == 'video')\n","\n","# input = \"in.mp4\"\n","# output = \"out_real.mp4\"\n","# width_input = int(video_info['width'])\n","# height_input = int(video_info['height'])\n","# width_real = 256\n","# height_real = 384\n","# start_time = time.time()\n","# frame_count = int(video_info['nb_frames'])\n","# frame_curr = 0\n","\n","# width_real_target = []\n","# height_real_target = []\n","# width_real_increment = width_input/width_real\n","# height_real_increment = height_input/height_real\n","# width_real_middle = width_real_increment/2\n","# height_real_middle = height_real_increment/2\n","\n","# for i in range(width_real):\n","#   width_real_target.append(width_real_middle + width_real_increment * i)\n","\n","# for i in range(height_real):\n","#   height_real_target.append(height_real_middle + height_real_increment * i)\n","\n","# width_real_target = list(map(lambda a: math.floor(a), width_real_target))\n","# height_real_target = list(map(lambda a: math.floor(a), height_real_target))\n","\n","# process1 = (\n","#     ffmpeg\n","#     .input(input)\n","#     .output(\n","#       'pipe:', \n","#       format='rawvideo', \n","#       pix_fmt='rgb24', \n","#       vframes=600\n","#       )\n","#     .run_async(pipe_stdout=True)\n","# )\n","\n","# process2 = (\n","#     ffmpeg\n","#     .input(\n","#       'pipe:', \n","#       format='rawvideo', \n","#       s='{}x{}'.format(width_real, height_real), \n","#       pix_fmt='rgb24', \n","#       framerate=60000/1001,\n","#     )\n","#     .output(\n","#       output, \n","#       pix_fmt='yuv420p', \n","#       s='{}x{}'.format(width_real, height_real), \n","#       # vcodec=\"h264_nvenc\", \n","#       # crf=18, \n","#       # preset='default', \n","#       vcodec=\"libx264\", \n","#       crf=14, \n","#       preset='ultrafast', \n","#     )\n","#     .overwrite_output()\n","#     .run_async(pipe_stdin=True)\n","# )\n","\n","# print(\"Encoding...\")\n","\n","# while True:\n","#   in_bytes = process1.stdout.read(width_input * height_input * 3)\n","#   if not in_bytes:\n","#     break\n","#   in_frame = (\n","#     np\n","#     .frombuffer(in_bytes, np.uint8)\n","#     .reshape([height_input, width_input, 3])\n","#   )\n","\n","#   real_frame = np.zeros((height_real, width_real, 3), dtype=np.uint8)\n","#   # print(real_frame)\n","\n","#   y_real = -1\n","#   for y in height_real_target:\n","#     y_real += 1\n","#     x_real = -1\n","#     for x in width_real_target:\n","#       x_real += 1\n","#       real_frame[y_real][x_real] = in_frame[y][x]\n","\n","#   # print(real_frame)\n","\n","#   # out_frame = (\n","      \n","#   # )\n","\n","#   # See examples/tensorflow_stream.py:\n","#   # out_frame = deep_dream.process_frame(in_frame)\n","\n","#   process2.stdin.write(\n","#       real_frame\n","#       .astype(np.uint8)\n","#       .tobytes()\n","#   )\n","  \n","#   # process3.stdin.write(process2.stdout.read(width_real*multiplier * height_real*multiplier * 3))\n","\n","#   frame_curr += 1\n","#   if math.floor(frame_curr/100)*100 == frame_curr:\n","#     print(f\"Frame {frame_curr} of {frame_count}\")\n","\n","# print(f\"Frame {frame_curr} of {frame_count}\")\n","\n","# process2.stdin.close()\n","# process1.wait()\n","# process2.wait()\n","\n","# print(f\"All done!\")\n","# print(f\"Done in {time.time() - start_time} seconds.\")"],"execution_count":null,"outputs":[]}]}